<?xml version="1.0" encoding="UTF-8"?>
<svg version="1.1" xmlns="http://www.w3.org/2000/svg" width="1563" height="1563">
<path d="M0 0 C0.87785156 0.474375 1.75570312 0.94875 2.66015625 1.4375 C23.46592554 13.27138423 38.34511107 32.45087225 45 55.45703125 C50.74325391 79.17556543 48.12749522 103.58375565 35.94921875 124.90234375 C21.92031363 147.19677614 2.62314312 160.99642697 -22.7578125 167.2734375 C-23.82773437 167.51320313 -24.89765625 167.75296875 -26 168 C-27.15048828 168.28810547 -27.15048828 168.28810547 -28.32421875 168.58203125 C-46.48775572 171.41925527 -65.62118614 168.16745141 -82 160 C-83.65902344 159.18789063 -83.65902344 159.18789063 -85.3515625 158.359375 C-105.56886567 147.69037687 -119.31453376 130.31470945 -127 109 C-127.43441406 107.80503906 -127.86882813 106.61007812 -128.31640625 105.37890625 C-135.29806977 82.39050197 -131.79221455 57.13579201 -121 36 C-111.21550711 19.12019831 -97.57605482 6.42238495 -80 -2 C-79.09121094 -2.45117188 -78.18242188 -2.90234375 -77.24609375 -3.3671875 C-53.41266113 -14.32732386 -22.78751826 -12.64217379 0 0 Z " fill="#013638" transform="translate(824,656)"/>
<path d="M0 0 C0.61875 0.66 1.2375 1.32 1.875 2 C12.40331788 12.38168393 24.16381259 18.97722994 38.375 22.8125 C39.09228271 23.00739014 39.80956543 23.20228027 40.54858398 23.40307617 C54.39226468 26.84994455 68.3542576 27.32000031 82.53125 27.21875 C84.34419754 27.21242698 86.15714513 27.20612055 87.97009277 27.1998291 C111.28792615 27.07798408 134.59651072 26.32100687 157.90216064 25.60931396 C167.5022753 25.31763152 177.10275222 25.03800888 186.70317078 24.75654602 C190.01233614 24.65865829 193.32141862 24.55830348 196.63049316 24.45739746 C198.65665618 24.39670455 200.68281988 24.33603436 202.70898438 24.27539062 C204.05687294 24.2333123 204.05687294 24.2333123 205.43199158 24.19038391 C214.58712853 23.91957557 223.68032224 23.84497515 232.8125 24.625 C233.63169922 24.67011719 234.45089844 24.71523438 235.29492188 24.76171875 C239.46385824 25.13304102 242.16363858 25.5830894 245.03515625 28.7734375 C247.84178197 33.38232984 248.02986417 36.76556642 247 42 C243.9636135 47.38713734 240.4910573 48.93728553 234.79296875 50.5546875 C234.20128906 50.70164062 233.60960937 50.84859375 233 51 C233 51.66 233 52.32 233 53 C233.75925781 53.23074219 234.51851562 53.46148438 235.30078125 53.69921875 C236.29464844 54.02535156 237.28851562 54.35148438 238.3125 54.6875 C239.29863281 55.00074219 240.28476562 55.31398438 241.30078125 55.63671875 C244.58740551 57.29667803 245.52146045 58.66215987 247 62 C247.3984375 64.28125 247.3984375 64.28125 247.375 66.5 C247.38273438 67.2321875 247.39046875 67.964375 247.3984375 68.71875 C246.86568512 71.76901851 245.89883006 73.55054972 244 76 C241.30078125 77.36328125 241.30078125 77.36328125 238.3125 78.3125 C237.31863281 78.63863281 236.32476563 78.96476563 235.30078125 79.30078125 C234.54152344 79.53152344 233.78226563 79.76226563 233 80 C233 80.66 233 81.32 233 82 C233.75925781 82.23074219 234.51851562 82.46148438 235.30078125 82.69921875 C236.29464844 83.02535156 237.28851562 83.35148438 238.3125 83.6875 C239.29863281 84.00074219 240.28476562 84.31398438 241.30078125 84.63671875 C244.58740551 86.29667803 245.52146045 87.66215987 247 91 C247.72812578 95.16887701 247.40076181 98.91558568 245.9375 102.875 C243.32272101 105.74282211 240.61228903 106.66915667 237 108 C235.65986503 108.65288627 234.32258472 109.31225595 233 110 C233.80806356 112.18023567 233.80806356 112.18023567 235.9609375 112.74609375 C237.56481003 113.2054553 239.16897534 113.6637959 240.7734375 114.12109375 C243.20344364 115.0803067 244.37597698 115.97246206 246 118 C247.66933465 123.00800396 247.73838209 127.95859068 245.9375 132.9375 C240.72036253 138.49122698 230.47147166 137.85017063 223.34297371 138.08903122 C220.6713223 138.11912271 218.00207719 138.11722966 215.33032227 138.09912109 C214.34210511 138.09554785 213.35388796 138.0919746 212.33572483 138.08829308 C201.12493419 138.02563918 189.92074339 137.73380269 178.71484375 137.4140625 C176.47197105 137.35154126 174.22909687 137.28907292 171.98622131 137.22665405 C167.33327139 137.09622539 162.68041079 136.96300441 158.02758789 136.828125 C152.10084197 136.65685245 146.17386008 136.49605966 140.24675655 136.33771706 C135.63348924 136.21273217 131.02044986 136.08049443 126.40744209 135.94630051 C124.22250187 135.88390691 122.0374863 135.82409034 119.85239983 135.76704788 C80.14540742 134.72081382 80.14540742 134.72081382 66 120 C55.80115057 108.94769036 49.55643959 94.20229157 42.71289062 80.96411133 C39.2211846 74.24454378 35.57543201 67.63349452 31.8125 61.0625 C25.65924944 50.31528744 19.8447116 39.40225089 14.0871582 28.43969727 C13.40608373 27.14582654 12.72469155 25.852123 12.04296875 24.55859375 C11.71321548 23.93173172 11.38346222 23.30486969 11.04371643 22.65901184 C8.01616696 16.94476591 4.76512547 11.37155169 1.4621582 5.81274414 C0 3 0 3 0 0 Z " fill="#003539" transform="translate(518,818)"/>
<path d="M0 0 C0.74467529 0.00563965 1.48935059 0.0112793 2.2565918 0.01708984 C22.09456756 0.44867532 36.92745813 10.84126959 50.375 24.625 C54.57447793 29.25519361 58.23852832 34.19001373 61.8125 39.3125 C62.23547363 39.91239746 62.65844727 40.51229492 63.09423828 41.13037109 C64.39544584 42.9906875 65.67027088 44.8664085 66.9375 46.75 C67.3404126 47.32911133 67.7433252 47.90822266 68.15844727 48.50488281 C70.88247798 52.66442871 70.88247798 52.66442871 70.5534668 55.71142578 C69.79164772 58.38569939 68.80941292 60.6014904 67.51171875 63.05859375 C67.03557129 63.96649658 66.55942383 64.87439941 66.06884766 65.80981445 C65.55112793 66.78007568 65.0334082 67.75033691 64.5 68.75 C63.96165527 69.76989014 63.42331055 70.78978027 62.86865234 71.84057617 C58.30163184 80.46473294 53.63364792 89.0333585 48.94140625 97.58984375 C45.55416633 103.77201346 42.21280649 109.97853628 38.875 116.1875 C28.62227625 135.25142243 28.62227625 135.25142243 23.56884766 144.53662109 C20.929366 149.38732147 18.31464211 154.24783448 15.75390625 159.140625 C0.21609835 188.61070083 0.21609835 188.61070083 -7.1875 192.3125 C-11.89527 192.70481417 -14.25829697 192.78586758 -18.5 190.625 C-21.28277036 188.23052317 -22.65916857 186.63009749 -24.1875 183.3125 C-24.04296875 179.98046875 -24.04296875 179.98046875 -23.375 176.5 C-23.05595703 174.75783203 -23.05595703 174.75783203 -22.73046875 172.98046875 C-22.55128906 172.10003906 -22.37210938 171.21960938 -22.1875 170.3125 C-25.22812027 172.04708203 -27.43572685 173.56072685 -29.9375 176.0625 C-33.80003555 178.73656307 -35.50670001 178.81692973 -40 178.03515625 C-43.58407591 176.85113117 -45.55920939 175.00649788 -48.1875 172.3125 C-49.71384923 169.25980154 -49.02544444 166.55404311 -48.75 163.1875 C-48.59724609 161.26550781 -48.59724609 161.26550781 -48.44140625 159.3046875 C-48.35761719 158.31726563 -48.27382813 157.32984375 -48.1875 156.3125 C-51.17902582 157.08729736 -51.17902582 157.08729736 -54.1875 158.3125 C-54.5175 159.3025 -54.8475 160.2925 -55.1875 161.3125 C-58.91267358 163.79594905 -61.87311142 164.07107382 -66.1875 163.3125 C-70.44029019 161.45914397 -72.70939798 159.28782812 -74.75 155.125 C-75.31517356 150.19991612 -74.43245645 146.07206428 -73.1875 141.3125 C-74.280625 141.910625 -75.37375 142.50875 -76.5 143.125 C-77.11488281 143.46144531 -77.72976563 143.79789063 -78.36328125 144.14453125 C-80.24993707 145.24052956 -80.24993707 145.24052956 -81.6484375 146.921875 C-84.1790808 149.2084461 -86.62834966 148.77981215 -89.8984375 148.66796875 C-94.17377793 148.0040507 -97.04149519 145.87523383 -99.5625 142.4375 C-101.56183126 135.63977373 -98.89001321 130.64097336 -95.9375 124.625 C-95.48785889 123.69727783 -95.03821777 122.76955566 -94.57495117 121.8137207 C-90.25427052 113.10191754 -85.17925156 104.99663705 -79.85302734 96.87451172 C-76.77723305 92.14314477 -73.79932747 87.35033298 -70.8125 82.5625 C-70.18069824 81.55155273 -69.54889648 80.54060547 -68.89794922 79.49902344 C-62.23794164 68.82469502 -55.70855058 58.07205303 -49.1875 47.3125 C-46.7101496 43.22806128 -44.23051331 39.14501841 -41.75 35.0625 C-41.19497803 34.14654053 -40.63995605 33.23058105 -40.06811523 32.28686523 C-23.62830722 5.2276765 -23.62830722 5.2276765 -11.94140625 1.19140625 C-7.90933259 0.24737236 -4.11710902 -0.03291806 0 0 Z " fill="#003539" transform="translate(708.1875,476.6875)"/>
<path d="M0 0 C3.76605222 3.44158265 6.86364321 7.23613587 9.80859375 11.3828125 C10.24143173 11.9919046 10.67426971 12.6009967 11.120224 13.22854614 C15.69753636 19.80643815 19.40152414 26.76009265 23.0625 33.875 C23.7875979 35.26353488 24.51386339 36.65146058 25.24121094 38.03881836 C26.74703018 40.9136034 28.24789618 43.79088416 29.74462891 46.67041016 C33.37743574 53.65325634 37.06159246 60.60890704 40.75 67.5625 C41.10444183 68.23171478 41.45888367 68.90092957 41.82406616 69.59042358 C46.87855623 79.12751634 52.08926944 88.56011428 57.44335938 97.93310547 C61.16023062 104.45893705 64.75038489 111.04259576 68.25 117.6875 C68.71647949 118.56752686 69.18295898 119.44755371 69.66357422 120.35424805 C70.08912598 121.16933838 70.51467773 121.98442871 70.953125 122.82421875 C71.51241699 123.89289185 71.51241699 123.89289185 72.08300781 124.9831543 C75.56185073 132.63457106 75.33571981 143.52198606 72.4375 151.3125 C64.45205288 168.20802496 51.07336985 178.5866571 33.8125 184.8125 C18.20917195 189.5949442 2.22418303 190.53183949 -14 191 C-14.44315552 190.25617065 -14.44315552 190.25617065 -14.89526367 189.49731445 C-21.67225509 178.13386116 -28.54681863 166.83710217 -35.52734375 155.59765625 C-39.30600023 149.51301153 -43.06044265 143.41357265 -46.8125 137.3125 C-47.81724365 135.67873413 -47.81724365 135.67873413 -48.84228516 134.01196289 C-50.20918152 131.78924641 -51.57604331 129.56650866 -52.94287109 127.34375 C-55.66288711 122.92251342 -58.38649688 118.50349551 -61.11010742 114.08447266 C-63.11009902 110.83669761 -65.10608866 107.5864898 -67.1015625 104.3359375 C-69.6634206 100.16413365 -72.24282485 96.004002 -74.8359375 91.8515625 C-80.20084221 83.22063461 -85.4693739 74.60544624 -89.875 65.4375 C-90.20306641 64.76517334 -90.53113281 64.09284668 -90.86914062 63.40014648 C-92.9977247 58.75785701 -93.83336003 54.8334241 -92.375 49.875 C-89.88046208 46.47335738 -87.02580967 44.47555976 -82.88671875 43.50390625 C-79.12395044 43.18546817 -76.8519854 43.4219695 -73.6796875 45.57421875 C-71.7069709 47.31713862 -69.86027739 49.13972261 -68 51 C-67.67 51 -67.34 51 -67 51 C-66.87742889 46.16945373 -66.87742889 46.16945373 -67.6875 41.4375 C-68.15953665 37.7556141 -67.06647823 36.0351399 -65 33 C-61.95374274 30.50621257 -58.93767608 29.22422689 -55.125 28.3125 C-50.81728781 29.26019668 -48.26252905 31.63211796 -44.953125 34.46875 C-43.15131201 36.20566235 -43.15131201 36.20566235 -41 36 C-41.13019531 35.05898438 -41.26039063 34.11796875 -41.39453125 33.1484375 C-42.49204506 23.24004181 -42.49204506 23.24004181 -41.12890625 19.8046875 C-38.65968743 16.74316385 -35.81297485 14.81706604 -32 14 C-26.25273483 14 -23.53434818 15.77969896 -19.578125 19.625 C-17.93357649 21.2359095 -17.93357649 21.2359095 -15 22 C-15.15597656 21.43152344 -15.31195312 20.86304688 -15.47265625 20.27734375 C-16.74303041 15.2379125 -17.56835185 11.09714353 -16 6 C-11.72127836 1.18487885 -6.4821111 -1.56505025 0 0 Z " fill="#003539" transform="translate(977,651)"/>
<path d="M0 0 C12.54 0 25.08 0 38 0 C40.35196961 11.77757121 42.69990119 23.55592761 45.04072571 35.33571911 C46.1278139 40.80545629 47.21667082 46.27482895 48.30957031 51.7434082 C49.36412638 57.02046552 50.41403571 62.29842786 51.46072388 67.57705116 C51.86095682 69.59120963 52.26286558 71.60503583 52.66647339 73.61852074 C53.23130213 76.43777283 53.79017178 79.25814526 54.34765625 82.07885742 C54.60012619 83.32826866 54.60012619 83.32826866 54.85769653 84.60292053 C55.61386189 88.46007279 56.2102088 92.04619238 56 96 C56.66 96 57.32 96 58 96 C58.12322632 94.86090179 58.24645264 93.72180359 58.37341309 92.54818726 C58.94249614 88.01827091 59.92915962 83.65671358 61.02539062 79.22900391 C61.22875534 78.39224121 61.43212006 77.55547852 61.64164734 76.69335938 C62.30879348 73.9533347 62.98236747 71.2149375 63.65625 68.4765625 C64.12357409 66.56472551 64.59056941 64.65280814 65.05725098 62.74081421 C66.03292956 58.74757982 67.01163089 54.75510292 67.99267578 50.76318359 C69.25173105 45.63954656 70.50464154 40.51443162 71.75550079 35.38878822 C72.71781316 31.44735075 73.68260667 27.50652415 74.64823914 23.5658989 C75.11134086 21.67534385 75.57383631 19.78464018 76.03572083 17.89378738 C76.67960017 15.26013422 77.32663533 12.62727717 77.97460938 9.99462891 C78.16580856 9.2102243 78.35700775 8.4258197 78.55400085 7.61764526 C79.88554481 2.22891039 79.88554481 2.22891039 81 0 C93.54 0 106.08 0 119 0 C120.99085992 5.97257975 122.7672294 11.72718833 124.17651367 17.82446289 C124.37202316 18.65483063 124.56753265 19.48519836 124.76896667 20.34072876 C125.40594134 23.0504567 126.03700398 25.76152322 126.66796875 28.47265625 C127.11171941 30.36560009 127.55584247 32.25845666 128.00032043 34.15122986 C129.16300303 39.10687415 130.32065701 44.06367965 131.47723389 49.02075195 C132.66079815 54.08942161 133.84916118 59.15696574 135.03710938 64.22460938 C137.36274561 74.14864973 139.6830659 84.07392465 142 94 C142.33 94 142.66 94 143 94 C143.22328476 92.8666069 143.44656952 91.73321381 143.67662048 90.56547546 C145.77867436 79.8967988 147.88278201 69.228529 149.98891354 58.56065655 C151.07169052 53.07587933 152.15373735 47.59096015 153.23413086 42.10571289 C154.27632741 36.81453514 155.32042182 31.52373517 156.36584663 26.23319435 C156.76483682 24.21227231 157.16313694 22.1912139 157.56074333 20.17001915 C158.11672611 17.34434852 158.67513573 14.5191678 159.23413086 11.6940918 C159.39884888 10.85396042 159.56356689 10.01382904 159.73327637 9.14823914 C160.35268926 6.02821531 160.99293785 3.02118646 162 0 C174.54 0 187.08 0 200 0 C192.30374613 30.1742017 184.51516153 60.32252411 176.65563965 90.45452881 C174.96411932 96.94056762 173.27409233 103.42699571 171.58379364 109.91335297 C169.05696047 119.60918868 166.52831816 129.30455087 164 139 C149.81 139 135.62 139 121 139 C114.07 110.62 107.14 82.24 100 53 C96.79854441 64.52524013 93.67196897 76.02910489 90.79296875 87.6328125 C90.41917984 89.13171516 90.04517722 90.63056455 89.67097473 92.12936401 C88.70391366 96.00511226 87.73968407 99.88155905 86.77612305 103.75817871 C85.61016788 108.44642111 84.44055531 113.13375234 83.27158356 117.82124329 C81.51164574 124.88014945 79.75624421 131.94016936 78 139 C63.81 139 49.62 139 35 139 C25.92656036 103.7220722 16.85331455 68.44400169 7.86767578 33.14358521 C7.16446951 30.3811682 6.46015284 27.61903803 5.75488281 24.85714722 C4.77781858 21.03047031 3.80466669 17.20280514 2.83203125 13.375 C2.54233963 12.24208023 2.25264801 11.10916046 1.95417786 9.94190979 C1.5646418 8.40445351 1.5646418 8.40445351 1.16723633 6.8359375 C0.94030594 5.94438965 0.71337555 5.0528418 0.47956848 4.13427734 C0 2 0 2 0 0 Z " fill="#003539" transform="translate(320,1045)"/>
<path d="M0 0 C0.92232422 0.67482422 0.92232422 0.67482422 1.86328125 1.36328125 C11.56633294 9.00093834 18.11886268 20.90489119 20 33 C14.71661101 33.19860929 9.4354184 33.3433133 4.14916992 33.43945312 C2.35353732 33.47954648 0.55816366 33.53403986 -1.23657227 33.60351562 C-16.22047033 34.16878889 -16.22047033 34.16878889 -20.63842773 31.26708984 C-22.46875 29.1171875 -22.46875 29.1171875 -23.76757812 26.96435547 C-26.53755576 22.54929207 -32.20271009 21.12065426 -37 19.75 C-46.87225811 17.62631657 -57.21894772 19.37006101 -65.875 24.625 C-74.08253171 30.63196162 -78.41210898 40.13239152 -80 50 C-80.62476228 62.84395013 -80.19835296 75.92304721 -71.17578125 86.046875 C-62.64129498 93.89390756 -53.45211706 96.90479468 -41.87890625 97.03515625 C-30.97874171 96.46584829 -23.56096984 92.80887049 -16 85 C-14.02 81.37 -12.04 77.74 -10 74 C-23.86 74 -37.72 74 -52 74 C-52 65.42 -52 56.84 -52 48 C-27.58 48 -3.16 48 22 48 C22 88.98107256 22 88.98107256 14 99 C13.3498291 99.82612793 13.3498291 99.82612793 12.68652344 100.66894531 C1.17264797 115.01341923 -13.82558629 124.69505914 -32 128 C-36.26107971 128.40594325 -40.47159383 128.47816135 -44.75 128.4375 C-45.88526123 128.42920166 -47.02052246 128.42090332 -48.19018555 128.41235352 C-68.20079484 128.01222677 -85.22893239 121.04255846 -99.37109375 106.57421875 C-114.5282813 89.32109633 -117.13220221 69.20192227 -116.20703125 46.99121094 C-114.90362549 28.159457 -105.16464897 13.36994306 -91.75 0.91015625 C-66.77629722 -20.06959039 -25.47218233 -19.16572326 0 0 Z " fill="#AFEE00" transform="translate(1093,1057)"/>
<path d="M0 0 C3.60221034 -0.06940872 7.20398196 -0.1144094 10.80664444 -0.15280151 C11.89497731 -0.17546837 12.98331018 -0.19813522 14.10462284 -0.22148895 C28.01592063 -0.30405595 39.98372682 3.14992865 50.19067764 12.73196411 C60.89208606 23.80238661 67.91481558 37.7882554 75.45630264 51.07571411 C72.94795144 53.89355448 70.15707327 55.53295134 66.88208389 57.37649536 C65.75205948 58.01659546 64.62203506 58.65669556 63.45776749 59.31619263 C62.85712479 59.65353424 62.25648209 59.99087585 61.63763809 60.33843994 C58.44532066 62.13164885 55.26213619 63.94096845 52.07739639 65.74758911 C51.43087112 66.11372818 50.78434586 66.47986725 50.11822891 66.85710144 C44.15998644 70.23428562 38.24060044 73.67613584 32.33130264 77.13821411 C22.69788201 82.77723029 13.03690419 88.36675049 3.35815811 93.92752075 C2.34124893 94.51267456 1.32433975 95.09782837 0.27661514 95.70071411 C-1.18663193 96.54182739 -1.18663193 96.54182739 -2.67943954 97.39993286 C-6.32627626 99.5335748 -9.9144251 101.75770996 -13.48949814 104.00930786 C-15.54369736 105.07571411 -15.54369736 105.07571411 -18.54369736 105.07571411 C-20.4341866 101.81082539 -22.32313964 98.54505237 -24.21081161 95.27853394 C-24.89191827 94.10018439 -25.57331551 92.92200277 -26.25500107 91.74398804 C-29.89632641 85.45002877 -33.51929023 79.14884082 -37.04760361 72.79055786 C-45.66749866 57.26091189 -54.75551487 42.44133874 -66.54369736 29.07571411 C-67.56656845 27.90975708 -67.56656845 27.90975708 -68.61010361 26.72024536 C-78.35104627 16.2976161 -91.6424122 7.97558554 -105.79369736 5.56790161 C-106.37119736 5.40547974 -106.94869736 5.24305786 -107.54369736 5.07571411 C-107.87369736 4.41571411 -108.20369736 3.75571411 -108.54369736 3.07571411 C-95.31984395 2.67984657 -82.09586737 2.28839597 -68.87172604 1.90225983 C-62.7282208 1.72274159 -56.58476416 1.54182141 -50.44140244 1.35745239 C-44.48919903 1.17887596 -38.53688938 1.00430159 -32.58449364 0.83226013 C-30.33761509 0.76666144 -28.09077495 0.69972991 -25.84398079 0.63130188 C-17.23003304 0.3696341 -8.61584407 0.18408484 0 0 Z " fill="#003539" transform="translate(827.5436973571777,467.9242858886719)"/>
<path d="M0 0 C2.34556406 1.8734696 4.36355092 3.80105092 6.5 5.9375 C6.83 1.9775 7.16 -1.9825 7.5 -6.0625 C19.05 -6.0625 30.6 -6.0625 42.5 -6.0625 C42.5 30.5675 42.5 67.1975 42.5 104.9375 C30.95 104.9375 19.4 104.9375 7.5 104.9375 C7.17 101.3075 6.84 97.6775 6.5 93.9375 C5.406875 94.989375 4.31375 96.04125 3.1875 97.125 C-6.95053385 106.01832863 -18.37205687 107.71189959 -31.43847656 107.11230469 C-41.19504738 106.28500664 -49.07721976 102.07050637 -56.5 95.9375 C-57.12390625 95.46054688 -57.7478125 94.98359375 -58.390625 94.4921875 C-67.68143109 86.49874623 -73.19915639 71.78401754 -74.5 59.9375 C-75.9191744 40.4895545 -73.5585996 22.69655779 -60.8125 7.1875 C-45.47151803 -9.11777227 -18.57863849 -13.39934179 0 0 Z M-35.05859375 32.66796875 C-39.63833698 39.87889237 -40.63793542 48.20371685 -38.99609375 56.4765625 C-37.1310328 63.53182164 -34.33868862 68.60346714 -28.6875 73.25 C-22.1058816 76.73438621 -15.79306167 77.8916829 -8.5 75.9375 C-1.81681349 72.99298821 3.79017681 68.00934698 6.63671875 61.23046875 C8.75563441 53.14790811 8.99050093 42.97141114 5.5 35.25 C2.18952993 29.72941497 -2.41891514 26.72128597 -7.875 23.5625 C-18.76179426 20.97040613 -28.05571091 23.9103032 -35.05859375 32.66796875 Z " fill="#003539" transform="translate(603.5,1079.0625)"/>
<path d="M0 0 C0.33 0.66 0.66 1.32 1 2 C-0.14892578 4.6159668 -0.14892578 4.6159668 -1.9453125 7.94921875 C-2.26622864 8.54920181 -2.58714478 9.14918488 -2.91778564 9.76734924 C-3.97881446 11.7451809 -5.05165044 13.71633129 -6.125 15.6875 C-6.86844844 17.0664908 -7.61144583 18.44572487 -8.35400391 19.82519531 C-13.09072394 28.59993931 -17.96392699 37.29141676 -22.91796875 45.9453125 C-27.83877421 54.59582381 -32.48556305 63.38419562 -37.125 72.1875 C-37.90589733 73.66721223 -38.68690225 75.14686768 -39.46801758 76.62646484 C-39.84798386 77.34630554 -40.22795013 78.06614624 -40.61943054 78.80780029 C-40.99380753 79.51704651 -41.36818451 80.22629272 -41.75390625 80.95703125 C-42.12324783 81.65677063 -42.49258942 82.35651001 -42.87312317 83.07745361 C-43.58551569 84.42702707 -44.29799109 85.77655678 -45.01055908 87.1260376 C-45.91734851 88.84346131 -46.82368711 90.56112305 -47.72998047 92.27880859 C-65.5601715 125.93055128 -65.5601715 125.93055128 -85 132 C-100.42791121 134.80507477 -116.31915535 134 -132 134 C-132 98.69 -132 63.38 -132 27 C-98.8125 26.6875 -98.8125 26.6875 -88.47583008 26.61206055 C-55.49647494 26.27299234 -24.52721244 24.52721244 0 0 Z " fill="#003539" transform="translate(1044,820)"/>
<path d="M0 0 C0.95777344 0.42410156 1.91554688 0.84820313 2.90234375 1.28515625 C15.57978399 7.52823039 23.74246146 17.90453137 28.3125 31.125 C31.12654122 41.02104497 31.45258413 50.8319111 30 61 C4.92 61 -20.16 61 -46 61 C-43.87061739 71.43421635 -43.87061739 71.43421635 -36.75 78.3125 C-30.91001864 81.28852462 -25.15789078 81.61434044 -18.890625 79.80078125 C-14.52406484 77.95130846 -11.61705079 74.92557618 -9 71 C-6.16272675 70.73332461 -3.54616955 70.65208766 -0.7109375 70.70703125 C0.10748627 70.71127609 0.92591003 70.71552094 1.76913452 70.71989441 C4.38808836 70.73671321 7.00627802 70.77437026 9.625 70.8125 C11.3984264 70.82754274 13.17186484 70.84123186 14.9453125 70.85351562 C19.2971703 70.88662708 23.64845551 70.93843048 28 71 C26.18954307 82.89085177 18.7816758 92.75550404 9.36328125 100.0390625 C-5.01472613 109.67909598 -20.81436765 111.76085732 -37.71484375 109.50390625 C-50.94151422 106.7201718 -62.71924821 100.22375244 -70.8125 89.1875 C-80.83489936 73.75205947 -83.73881443 55.71915978 -80.27734375 37.62109375 C-76.69734059 23.25759928 -69.28773882 11.24511699 -56.46484375 3.3125 C-39.6761439 -5.62728312 -17.6920432 -8.07844362 0 0 Z M-42.375 31.5625 C-44.97690743 35.46536114 -46 37.19425292 -46 42 C-32.47 42 -18.94 42 -5 42 C-6.07225925 34.49418527 -7.06924662 31.21301786 -13.0625 26.6875 C-23.44257911 20.72447583 -34.53693821 23.10564386 -42.375 31.5625 Z " fill="#003539" transform="translate(935,1076)"/>
<path d="M0 0 C11.48327432 9.51926284 18.06931186 22.22841435 20 37 C21.2778676 54.46344979 18.26638682 70.38159931 7.4375 84.625 C-2.9986433 95.90145614 -17.75135943 102.32330663 -32.9609375 103.23828125 C-50.47860498 103.67905221 -66.92318337 100.33559345 -80.16015625 87.96484375 C-91.80196965 75.53207912 -96.68292681 59.80411499 -96.2421875 42.93359375 C-94.89695555 26.63892929 -89.33857134 12.08683222 -77 1 C-55.49201221 -16.43890902 -22.09097801 -15.85536861 0 0 Z M-56 28 C-61.01977678 36.78460936 -61.37608374 47.20722995 -59.38671875 57.02734375 C-57.19506355 63.29335355 -53.49216596 67.34211083 -48 71 C-41.83175848 73.89529704 -36.28374744 73.65440503 -29.9375 71.4375 C-23.57255547 68.69032029 -20.54421741 64.71569268 -17.1875 58.8125 C-14.28717207 49.50092086 -13.82905715 39.4125755 -18.2265625 30.51953125 C-22.05819896 24.23933566 -26.00014765 21.33328412 -33 19 C-42.66556811 17.95275372 -49.69606102 20.43527322 -56 28 Z " fill="#AFEE00" transform="translate(1222,1083)"/>
<path d="M0 0 C0.87785156 0.474375 1.75570312 0.94875 2.66015625 1.4375 C23.46592554 13.27138423 38.34511107 32.45087225 45 55.45703125 C50.74325391 79.17556543 48.12749522 103.58375565 35.94921875 124.90234375 C21.92031363 147.19677614 2.62314312 160.99642697 -22.7578125 167.2734375 C-23.82773437 167.51320313 -24.89765625 167.75296875 -26 168 C-27.15048828 168.28810547 -27.15048828 168.28810547 -28.32421875 168.58203125 C-46.48775572 171.41925527 -65.62118614 168.16745141 -82 160 C-83.65902344 159.18789063 -83.65902344 159.18789063 -85.3515625 158.359375 C-105.56886567 147.69037687 -119.31453376 130.31470945 -127 109 C-127.43441406 107.80503906 -127.86882813 106.61007812 -128.31640625 105.37890625 C-135.29806977 82.39050197 -131.79221455 57.13579201 -121 36 C-111.21550711 19.12019831 -97.57605482 6.42238495 -80 -2 C-79.09121094 -2.45117188 -78.18242188 -2.90234375 -77.24609375 -3.3671875 C-53.41266113 -14.32732386 -22.78751826 -12.64217379 0 0 Z M-95 28 C-95.77085937 28.73605469 -96.54171875 29.47210937 -97.3359375 30.23046875 C-109.92125477 43.05202917 -116.22262146 61.02487939 -116.5625 78.8125 C-116.35547998 98.76189796 -108.66211219 117.33522772 -94.640625 131.421875 C-93.76921875 132.27265625 -92.8978125 133.1234375 -92 134 C-91.35546875 134.66515625 -90.7109375 135.3303125 -90.046875 136.015625 C-76.05172795 149.52398432 -57.23445218 153.67849789 -38.42382812 153.61376953 C-28.49374183 153.31226691 -20.01063289 151.07783972 -11 147 C-9.453125 146.31550781 -9.453125 146.31550781 -7.875 145.6171875 C10.13432922 136.66368576 22.1813008 120.68053865 29.0625 102.13671875 C35.3026975 82.36609301 32.68251898 62.0278568 23.3347168 43.78198242 C13.6814886 26.01716424 -2.82300984 13.27923089 -22.09790039 7.35522461 C-49.3644711 0.49183486 -75.44701363 8.54510553 -95 28 Z " fill="#ADEC00" transform="translate(824,656)"/>
<path d="M0 0 C7.74672934 5.91065388 13.04113104 13.37998911 15.625 22.8125 C16.12 26.7725 16.12 26.7725 16.625 30.8125 C5.735 30.8125 -5.155 30.8125 -16.375 30.8125 C-17.365 28.5025 -18.355 26.1925 -19.375 23.8125 C-23.19227916 19.99522084 -26.29676849 19.56337675 -31.5 19.5 C-34.95037967 19.58340612 -38.0600376 19.83704456 -41.375 20.8125 C-41.6225 22.05 -41.87 23.2875 -42.125 24.5625 C-42.26421875 25.25859375 -42.4034375 25.9546875 -42.546875 26.671875 C-42.53859858 28.92773371 -42.53859858 28.92773371 -41.00390625 30.89453125 C-37.1688152 33.69249515 -33.12028441 34.58036388 -28.5625 35.75 C-26.66346416 36.26733989 -24.76502812 36.7868863 -22.8671875 37.30859375 C-21.93358398 37.56237793 -20.99998047 37.81616211 -20.03808594 38.07763672 C6.12070284 45.29600436 6.12070284 45.29600436 13.625 56.8125 C17.594348 64.08963799 17.85893078 72.70210062 16.625 80.8125 C13.45899084 90.84942265 7.96039251 96.59154648 -1.0625 101.5 C-17.67908668 109.21129022 -36.27953083 108.78382275 -53.375 102.8125 C-64.21772344 98.34784917 -72.1881292 91.11790188 -77.5 80.66015625 C-78.77118434 76.52313223 -78.94435603 72.11893973 -79.375 67.8125 C-68.155 67.8125 -56.935 67.8125 -45.375 67.8125 C-44.055 70.4525 -42.735 73.0925 -41.375 75.8125 C-35.48246628 79.87631636 -30.44174854 80.636954 -23.375 79.8125 C-19.9135946 78.94149451 -19.9135946 78.94149451 -17.375 77.8125 C-16.41181929 73.77494462 -16.41181929 73.77494462 -17.0234375 69.7578125 C-21.53831739 63.25951717 -35.11560407 61.78557075 -42.4375 59.875 C-54.98763095 56.54979681 -65.72608075 53.08975273 -73.375 41.8125 C-77.10046376 34.07209387 -77.13542913 25.32698914 -75 17.125 C-71.71027213 7.86005211 -65.96138896 1.85015982 -57.3125 -2.6875 C-40.13430386 -10.79353494 -16.07434589 -10.27038445 0 0 Z " fill="#003539" transform="translate(743.375,1079.1875)"/>
<path d="M0 0 C7.90535539 3.84381706 15.56508071 7.95537268 23.125 12.4375 C25.23402286 13.67768236 27.34341061 14.91724438 29.453125 16.15625 C30.53142578 16.79046875 31.60972656 17.4246875 32.72070312 18.078125 C38.08994758 21.22484123 43.48209837 24.33155718 48.875 27.4375 C49.93887939 28.05069092 51.00275879 28.66388184 52.09887695 29.2956543 C55.39899159 31.19755398 58.69949275 33.09878175 62 35 C66.1963131 37.41783662 70.39220284 39.83640662 74.58770752 42.25564575 C76.27098222 43.22606473 77.95457887 44.19592519 79.63818359 45.16577148 C80.66121582 45.75559814 81.68424805 46.3454248 82.73828125 46.953125 C83.63587158 47.47036133 84.53346191 47.98759766 85.45825195 48.52050781 C87.98578745 49.9917272 90.4957655 51.48951829 93 53 C91.60432835 56.70346195 89.92795392 60.08714331 87.98828125 63.53515625 C87.09786133 65.12166992 87.09786133 65.12166992 86.18945312 66.74023438 C85.57005859 67.83658203 84.95066406 68.93292969 84.3125 70.0625 C83.71244141 71.13177734 83.11238281 72.20105469 82.49414062 73.30273438 C81.28118065 75.45896289 80.05570127 77.60819611 78.81787109 79.75024414 C77.58949923 81.94616919 76.43177723 84.18289086 75.34228516 86.45092773 C71.33077277 94.42966881 71.33077277 94.42966881 67.69458008 95.98803711 C64.94776783 96.30304461 62.50110249 96.20567023 59.75 95.9375 C58.78634521 95.88746826 57.82269043 95.83743652 56.82983398 95.78588867 C53.87356798 95.60268414 50.94431073 95.32043524 48 95 C47.13068848 94.91202148 46.26137695 94.82404297 45.36572266 94.73339844 C23.35972838 92.33742872 3.66143718 85.10001271 -10.8125 67.625 C-16.97440686 59.24888548 -20.83582647 50.25144986 -19.77075195 39.73681641 C-18.51700348 32.58992424 -15.69604844 26.77906963 -12.25 20.4375 C-11.73695313 19.46103516 -11.22390625 18.48457031 -10.6953125 17.47851562 C-7.46239395 11.40663971 -3.93504979 5.64146884 0 0 Z " fill="#003539" transform="translate(531,745)"/>
<path d="M0 0 C11.22 0 22.44 0 34 0 C34 8.91 34 17.82 34 27 C41.59 27 49.18 27 57 27 C57 36.57 57 46.14 57 56 C49.41 56 41.82 56 34 56 C34.09699591 62.31749684 34.19976627 68.63434707 34.31738281 74.95141602 C34.35563385 77.09979534 34.39049347 79.24823787 34.421875 81.39672852 C34.46760937 84.48737146 34.52559056 87.57758081 34.5859375 90.66796875 C34.59748871 91.62648239 34.60903992 92.58499603 34.62094116 93.57255554 C34.73652763 100.01994188 34.73652763 100.01994188 37 106 C40.49106296 108.76234594 44.97685364 108.44314565 49.25 108.625 C51.8075 108.74875 54.365 108.8725 57 109 C57 118.57 57 128.14 57 138 C50.131875 138.0928125 50.131875 138.0928125 43.125 138.1875 C40.9905542 138.22846802 40.9905542 138.22846802 38.81298828 138.27026367 C27.25806173 138.34537958 17.98153032 136.58784458 9 129 C1.35952741 121.24275163 -0.34206903 112.06555254 -0.33988953 101.48141479 C-0.31666374 99.75424728 -0.31666374 99.75424728 -0.29296875 97.9921875 C-0.28872391 96.7855545 -0.28447906 95.57892151 -0.28010559 94.33572388 C-0.26343155 90.51524707 -0.2257995 86.695315 -0.1875 82.875 C-0.17243863 80.270841 -0.15875278 77.66667366 -0.14648438 75.0625 C-0.11356484 68.70812627 -0.06186022 62.35415521 0 56 C-4.62 56 -9.24 56 -14 56 C-14 46.43 -14 36.86 -14 27 C-9.38 27 -4.76 27 0 27 C0 18.09 0 9.18 0 0 Z " fill="#003539" transform="translate(786,1046)"/>
<path d="M0 0 C4.65916054 2.52925858 4.65916054 2.52925858 5.9765625 5.1640625 C6.0787469 6.57388286 6.12029492 7.98834283 6.13046265 9.40182495 C6.13906311 10.29069397 6.14766357 11.17956299 6.15652466 12.09536743 C6.16078461 13.07307098 6.16504456 14.05077454 6.16943359 15.05810547 C6.18169983 16.59972351 6.18169983 16.59972351 6.19421387 18.17248535 C6.21908845 21.58373424 6.23558746 24.99494152 6.25 28.40625 C6.25532368 29.56887486 6.26064735 30.73149971 6.26613235 31.92935562 C6.2928704 38.08066398 6.31224495 44.23195197 6.32666016 50.38330078 C6.34332736 56.7481409 6.3881212 63.11246518 6.4390316 69.47710991 C6.47262395 74.36179221 6.48422873 79.24635074 6.48988724 84.13113785 C6.49661977 86.47796709 6.5118933 88.82478762 6.53577805 91.17150497 C6.5672653 94.45184644 6.56749087 97.73077865 6.56005859 101.01123047 C6.57646393 101.98488556 6.59286926 102.95854065 6.60977173 103.96170044 C6.54861844 110.53767793 6.54861844 110.53767793 3.62759399 113.7361145 C-1.23021596 116.35271865 -5.60475078 117.1372144 -11.0234375 116.1640625 C-21.64269759 111.94119884 -31.51261815 105.69317253 -41.41308594 100.04125977 C-48.22652025 96.15314631 -55.09863355 92.40692511 -62.06030273 88.79125977 C-66.93231405 86.25518595 -66.93231405 86.25518595 -68.0234375 85.1640625 C-68.1170294 83.44540841 -68.14088361 81.72290506 -68.13696289 80.00170898 C-68.13688736 78.90064316 -68.13681183 77.79957733 -68.13673401 76.66514587 C-68.13157272 75.4672493 -68.12641144 74.26935272 -68.12109375 73.03515625 C-68.1196788 71.81578873 -68.11826385 70.5964212 -68.11680603 69.34010315 C-68.11118717 65.4272318 -68.09863146 61.51441669 -68.0859375 57.6015625 C-68.08092493 54.95638103 -68.0763616 52.31119867 -68.07226562 49.66601562 C-68.06121161 43.16534524 -68.04445514 36.66470789 -68.0234375 30.1640625 C-67.29044434 29.77250977 -66.55745117 29.38095703 -65.80224609 28.97753906 C-62.33379048 27.12401716 -58.86591564 25.26941217 -55.3984375 23.4140625 C-54.76828735 23.0769223 -54.13813721 22.7397821 -53.4888916 22.39242554 C-44.00878982 17.3185746 -34.5513737 12.20549174 -25.13037109 7.02246094 C-21.32735708 4.93619362 -17.51650243 2.86453651 -13.66796875 0.86328125 C-13.06057861 0.54576904 -12.45318848 0.22825684 -11.82739258 -0.09887695 C-7.8598509 -1.71993641 -4.0057663 -1.65489187 0 0 Z M-41.7109375 40.4140625 C-42.51337891 40.85363281 -43.31582031 41.29320312 -44.14257812 41.74609375 C-50.22998917 45.23455297 -56.71596609 49.68788063 -58.7722168 56.72753906 C-59.14981449 60.38975968 -58.02374304 62.10109464 -56.0234375 65.1640625 C-51.42451855 69.7676999 -46.13845749 73.13221741 -40.5234375 76.3515625 C-39.80285156 76.77630859 -39.08226562 77.20105469 -38.33984375 77.63867188 C-31.17976008 81.80136066 -24.55860129 85.60527214 -16.0234375 84.1640625 C-11.90573538 81.79857405 -10.42540033 79.61665654 -9.0234375 75.1640625 C-8.81257861 72.57900336 -8.69580259 70.10398463 -8.6875 67.51953125 C-8.6808432 66.79091385 -8.6741864 66.06229645 -8.66732788 65.31159973 C-8.65723568 63.77440908 -8.6525098 62.23717492 -8.65283203 60.69995117 C-8.64846991 58.36887938 -8.61214893 56.03972033 -8.57421875 53.70898438 C-8.43862213 42.82223989 -8.43862213 42.82223989 -13.0234375 33.1640625 C-22.05466018 27.27723104 -33.73972353 35.82752863 -41.7109375 40.4140625 Z " fill="#003539" transform="translate(903.0234375,842.8359375)"/>
<path d="M0 0 C4.30959899 2.10691506 7.06841902 5.48944181 9.8125 9.375 C11.36381998 14.02895993 11.20245226 18.74512303 11.375 23.625 C11.4174585 24.77911377 11.45991699 25.93322754 11.50366211 27.12231445 C12.05525835 44.1996009 11.8985205 61.29132963 11.8125 78.375 C11.15991211 78.73625977 10.50732422 79.09751953 9.83496094 79.46972656 C6.74214803 81.1845857 3.65220505 82.90454779 0.5625 84.625 C-1.12806519 85.56279297 -1.12806519 85.56279297 -2.8527832 86.51953125 C-8.34026935 89.58296188 -13.77223018 92.6929821 -19.08984375 96.046875 C-19.98606445 96.60858398 -20.88228516 97.17029297 -21.80566406 97.74902344 C-23.48678829 98.81290479 -25.1573331 99.89373788 -26.81542969 100.99316406 C-32.30963505 104.4583793 -32.30963505 104.4583793 -36.06640625 104.1015625 C-40.80189134 101.48193245 -45.38151352 98.66981173 -49.9375 95.75 C-52.07218697 94.39598432 -54.20763211 93.04316336 -56.34375 91.69140625 C-57.45621094 90.9864502 -58.56867187 90.28149414 -59.71484375 89.55517578 C-63.25686476 87.32233173 -66.82814023 85.13924747 -70.40625 82.96484375 C-70.99666077 82.60529602 -71.58707153 82.24574829 -72.19537354 81.87530518 C-75.06264337 80.12955924 -77.9327178 78.38894867 -80.80761719 76.65576172 C-82.36464355 75.70660889 -82.36464355 75.70660889 -83.953125 74.73828125 C-84.86868164 74.18438721 -85.78423828 73.63049316 -86.72753906 73.05981445 C-91.48600338 69.80076699 -93.83012578 67.0307259 -95.1875 61.375 C-95.5625 58.25 -95.5625 58.25 -95.1875 55.375 C-92.38314262 52.06933708 -89.2746231 50.08395309 -85.515625 47.9765625 C-84.38882324 47.33968506 -83.26202148 46.70280762 -82.10107422 46.04663086 C-81.50454041 45.71339813 -80.90800659 45.38016541 -80.293396 45.03683472 C-77.76041462 43.62173224 -75.23561549 42.1923139 -72.71029663 40.76359558 C-71.41514425 40.03096424 -70.11958889 39.29904487 -68.82363892 38.56782532 C-62.86991252 35.20612801 -56.96101165 31.77011113 -51.0625 28.3125 C-41.42922745 22.67323444 -31.76809908 17.0839622 -22.08935547 11.52319336 C-20.5639917 10.64546265 -20.5639917 10.64546265 -19.0078125 9.75 C-17.54420288 8.90816162 -17.54420288 8.90816162 -16.05102539 8.04931641 C-12.41415135 5.92281951 -8.83088936 3.71336926 -5.26000977 1.47802734 C-3.1875 0.375 -3.1875 0.375 0 0 Z M-42.875 39.6875 C-43.67744141 40.13544922 -44.47988281 40.58339844 -45.30664062 41.04492188 C-51.39579874 44.55923599 -57.8041928 48.60933039 -60.3125 55.4375 C-60.12732286 59.78916279 -58.87719596 62.69079382 -55.75976562 65.7980957 C-51.34652012 69.61312138 -46.74224789 72.66438426 -41.6875 75.5625 C-40.96691406 75.98724609 -40.24632812 76.41199219 -39.50390625 76.84960938 C-33.08536595 80.58118389 -26.76897588 84.0942046 -19.1875 84.375 C-15.48428537 82.77588459 -13.27290049 80.81591081 -11.1875 77.375 C-9.26194293 71.69227869 -9.96255108 65.29640454 -9.94726562 59.35864258 C-9.93757663 57.08051812 -9.90653843 54.803303 -9.875 52.52539062 C-9.86846725 51.06250531 -9.86321785 49.5996136 -9.859375 48.13671875 C-9.8470282 47.46356125 -9.8346814 46.79040375 -9.82196045 46.09684753 C-9.84520665 41.083352 -10.91571348 37.75128942 -13.1875 33.375 C-22.35713658 25.894507 -34.35296791 34.73541452 -42.875 39.6875 Z " fill="#003539" transform="translate(906.1875,522.625)"/>
<path d="M0 0 C1.80751495 0.85863382 3.58118984 1.79047638 5.32421875 2.7734375 C6.87012695 3.64162109 6.87012695 3.64162109 8.44726562 4.52734375 C9.51654297 5.13707031 10.58582031 5.74679687 11.6875 6.375 C12.70650391 6.94605469 13.72550781 7.51710938 14.77539062 8.10546875 C16.95220561 9.33520177 19.11189058 10.59561141 21.25610352 11.88134766 C24.0315584 13.51719571 26.86128945 14.85339964 29.80444336 16.16162109 C41.68482149 21.80048778 41.68482149 21.80048778 43.92971802 27.26177979 C45.28533017 33.77327107 44.68630203 40.29492029 44.1875 46.875 C44.10556764 48.81476892 44.03194511 50.75490736 43.96679688 52.6953125 C43.82240225 56.55359865 43.61707695 60.40074872 43.35693359 64.25292969 C43.09793022 68.12997161 42.92769358 71.99532743 42.83447266 75.87988281 C42.80710526 76.82606476 42.77973785 77.7722467 42.75154114 78.74710083 C42.70263596 80.52921917 42.6669173 82.311771 42.64726257 84.0944519 C42.42003 91.06015991 40.49147012 95.30651879 35.6875 100.5 C32.80523937 102.10870361 31.3974718 102.23772227 28.19311523 101.68261719 C23.14444854 100.11119649 18.69351858 97.08076071 14.1875 94.375 C13.03522395 93.6947446 11.88221411 93.0157308 10.72851562 92.33789062 C8.33486256 90.93023797 5.94443892 89.51732301 3.55615234 88.10058594 C-1.93346312 84.85014836 -7.46910073 81.67947695 -13 78.5 C-15.14603133 77.26206193 -17.29186364 76.02377877 -19.4375 74.78515625 C-23.38542992 72.50736716 -27.33428819 70.23120557 -31.28442383 67.95724487 C-33.05045522 66.94052802 -34.81627431 65.92344342 -36.58203125 64.90625 C-38.78734155 63.63599127 -40.99304216 62.36640982 -43.19921875 61.09765625 C-46.13673329 59.40510626 -49.06873491 57.70334361 -52 56 C-52.95648437 55.45230957 -53.91296875 54.90461914 -54.8984375 54.34033203 C-55.79820312 53.81681152 -56.69796875 53.29329102 -57.625 52.75390625 C-58.42164063 52.29443604 -59.21828125 51.83496582 -60.0390625 51.36157227 C-62 50 -62 50 -64 47 C-64.1171875 44.94921875 -64.1171875 44.94921875 -63.875 42.6875 C-63.81054688 41.94886719 -63.74609375 41.21023438 -63.6796875 40.44921875 C-61.54541681 32.75848471 -55.96106731 29.67105249 -49.5 25.875 C-48.57380859 25.31659424 -47.64761719 24.75818848 -46.69335938 24.18286133 C-43.80256954 22.4432428 -40.90172355 20.7213032 -38 19 C-35.34345828 17.40616998 -32.68937952 15.80829735 -30.03540039 14.21020508 C-28.35719108 13.20230989 -26.67671402 12.1981802 -24.99389648 11.19799805 C-21.30055234 9.0019856 -17.63338171 6.78676223 -14.03515625 4.4375 C-13.44089844 4.05376221 -12.84664062 3.67002441 -12.234375 3.2746582 C-10.69164606 2.27147889 -9.15974177 1.25170523 -7.62890625 0.23046875 C-4.40547389 -1.27827002 -3.37525565 -0.94896254 0 0 Z M-11.0625 27.6875 C-11.92166016 28.17927734 -12.78082031 28.67105469 -13.66601562 29.17773438 C-19.67538108 32.75397249 -26.24869251 37.17681232 -28.73852539 44.03393555 C-29.2034519 47.52978351 -27.9152809 50.1854895 -26 53 C-20.24308256 58.35424357 -13.52111889 62.19569961 -6.625 65.875 C-5.73683594 66.3596875 -4.84867188 66.844375 -3.93359375 67.34375 C2.04939379 70.58415777 6.98153586 72.98697152 14 72 C18.09360137 69.59723398 19.52886506 67.42022493 21 63 C21.37537363 60.38386036 21.37537363 60.38386036 21.44921875 57.6484375 C21.51399414 56.12283203 21.51399414 56.12283203 21.58007812 54.56640625 C21.61552734 53.51324219 21.65097656 52.46007812 21.6875 51.375 C21.73455078 50.34503906 21.78160156 49.31507813 21.83007812 48.25390625 C22.61683714 34.52978691 22.61683714 34.52978691 18 22 C15.57217182 19.39875552 14.31736122 19.0366186 10.75 18.625 C2.57529291 19.44247071 -4.13495425 23.54767801 -11.0625 27.6875 Z " fill="#003539" transform="translate(596,693)"/>
<path d="M0 0 C1.61328125 2.23828125 1.61328125 2.23828125 3.3125 5.3125 C4.23482422 6.96185547 4.23482422 6.96185547 5.17578125 8.64453125 C5.77777344 9.75183594 6.37976563 10.85914063 7 12 C7.76376953 13.39798828 7.76376953 13.39798828 8.54296875 14.82421875 C9.51532512 16.60991343 10.48146972 18.39900444 11.44140625 20.19140625 C13.74256275 24.3381018 16.25789582 28.35388484 18.77734375 32.37109375 C20 35 20 35 19.90722656 36.95239258 C18.56196996 39.9886324 16.57928178 40.78389517 13.70703125 42.390625 C12.60762207 43.01445068 11.50821289 43.63827637 10.37548828 44.28100586 C9.18806428 44.9377691 8.00039723 45.59409308 6.8125 46.25 C5.61639359 46.92148441 4.42091773 47.59409323 3.22607422 48.26782227 C0.88081955 49.58868172 -1.46782857 50.90272116 -3.81884766 52.21337891 C-6.46532293 53.69971092 -9.08930838 55.21250801 -11.69921875 56.76171875 C-12.33899658 57.13973633 -12.97877441 57.51775391 -13.63793945 57.90722656 C-15.24700153 58.86158242 -16.85405776 59.81931798 -18.4609375 60.77734375 C-21 62 -21 62 -25 62 C-27.04564528 58.46255395 -29.09027627 54.92452372 -31.1340332 51.38598633 C-31.82712481 50.18628732 -32.520477 48.98673882 -33.21411133 47.78735352 C-33.54886475 47.20848389 -33.88361816 46.62961426 -34.22851562 46.03320312 C-34.56086212 45.45855316 -34.89320862 44.8839032 -35.23562622 44.2918396 C-36.21950967 42.58541344 -37.19646656 40.87499969 -38.17333984 39.16455078 C-39.31369441 37.18897261 -40.47707591 35.22629946 -41.67431641 33.28466797 C-42.1491748 32.49850098 -42.6240332 31.71233398 -43.11328125 30.90234375 C-43.53005127 30.23581787 -43.94682129 29.56929199 -44.3762207 28.88256836 C-45 27 -45 27 -44.43896484 24.95214844 C-42.56300421 22.40715671 -40.6441593 21.36474121 -37.86328125 19.86328125 C-36.81736816 19.28980957 -35.77145508 18.71633789 -34.69384766 18.12548828 C-33.57800293 17.52720215 -32.4621582 16.92891602 -31.3125 16.3125 C-29.03407173 15.06839035 -26.7567245 13.82229886 -24.48046875 12.57421875 C-22.81636963 11.66422119 -22.81636963 11.66422119 -21.11865234 10.73583984 C-16.43468978 8.12874936 -11.859666 5.35429049 -7.3293457 2.48950195 C-4.62146644 0.81088383 -3.26039016 0 0 0 Z " fill="#003539" transform="translate(920,604)"/>
<path d="M0 0 C3.98724529 0.45958088 6.82338417 1.83965409 10.24609375 3.87890625 C11.2424585 4.46679932 12.23882324 5.05469238 13.26538086 5.66040039 C14.31218018 6.28809326 15.35897949 6.91578613 16.4375 7.5625 C18.59316886 8.84472751 20.7494168 10.125982 22.90625 11.40625 C23.94910156 12.02628906 24.99195313 12.64632812 26.06640625 13.28515625 C28.57383177 14.75088169 31.09558033 16.16158948 33.65625 17.53125 C34.63573608 18.05996704 34.63573608 18.05996704 35.63500977 18.59936523 C37.31193707 19.49540725 38.99745178 20.37532686 40.68359375 21.25390625 C43 23 43 23 43.81689453 25.27246094 C44.05527215 28.82333389 43.0780189 30.35661696 41.24609375 33.38671875 C40.63830078 34.40830078 40.03050781 35.42988281 39.40429688 36.48242188 C38.75525391 37.54009766 38.10621094 38.59777344 37.4375 39.6875 C36.81552734 40.72583984 36.19355469 41.76417969 35.55273438 42.83398438 C34.3151012 44.89670634 33.06829533 46.95395469 31.81201172 49.00537109 C30.61342557 50.98621961 29.44249203 52.98409211 28.30126953 54.99853516 C27.78032715 55.91296387 27.25938477 56.82739258 26.72265625 57.76953125 C26.26769775 58.58655518 25.81273926 59.4035791 25.34399414 60.24536133 C24.67871704 61.11390747 24.67871704 61.11390747 24 62 C19.77600163 62 16.88867983 59.91686069 13.3125 57.875 C12.54244629 57.4413916 11.77239258 57.0077832 10.97900391 56.56103516 C0.25202053 50.49190415 -10.37347891 44.24277672 -21 38 C-20.17790325 34.35684925 -18.76593738 31.51784553 -16.9375 28.25 C-16.38964844 27.26515625 -15.84179688 26.2803125 -15.27734375 25.265625 C-14.85582031 24.51796875 -14.43429687 23.7703125 -14 23 C-13.34 23 -12.68 23 -12 23 C-11.938125 22.35546875 -11.87625 21.7109375 -11.8125 21.046875 C-10.64141377 16.65530165 -8.34636075 13.11497757 -6 9.25 C-5.5359375 8.47011719 -5.071875 7.69023438 -4.59375 6.88671875 C-1.17911255 1.17911255 -1.17911255 1.17911255 0 0 Z " fill="#003539" transform="translate(617,652)"/>
<path d="M0 0 C1.77206191 0.00025118 3.5441287 0.00581561 5.31616211 0.01586914 C6.14079956 0.01687622 6.96543701 0.0178833 7.81506348 0.0189209 C10.90789166 0.02416947 14.0007001 0.03813062 17.09350586 0.05102539 C24.00288086 0.07165039 30.91225586 0.09227539 38.03100586 0.11352539 C38.03100586 17.27352539 38.03100586 34.43352539 38.03100586 52.11352539 C22.28100586 52.11352539 22.28100586 52.11352539 16.32006836 51.89477539 C15.05678711 51.8496582 13.79350586 51.80454102 12.49194336 51.75805664 C11.22608398 51.71036133 9.96022461 51.66266602 8.65600586 51.61352539 C7.32268088 51.56511764 5.98934754 51.51693965 4.65600586 51.46899414 C1.4475835 51.35274695 -1.76073686 51.23422829 -4.96899414 51.11352539 C-4.99426202 44.0110754 -5.01182615 36.90863691 -5.02392578 29.80615234 C-5.02896763 27.38785367 -5.03580092 24.96955806 -5.04443359 22.55126953 C-5.05650571 19.08373256 -5.06222377 15.61623573 -5.06665039 12.14868164 C-5.07181168 11.06015396 -5.07697296 9.97162628 -5.08229065 8.85011292 C-5.08236618 7.84915085 -5.08244171 6.84818878 -5.08251953 5.81689453 C-5.08474014 4.93087051 -5.08696075 4.0448465 -5.08924866 3.13197327 C-4.86731663 -0.59311123 -3.93186418 0.11246336 0 0 Z " fill="#003539" transform="translate(792.968994140625,874.886474609375)"/>
<path d="M0 0 C3.3 0 6.6 0 10 0 C10 2.97 10 5.94 10 9 C11.24716797 9.07347656 11.24716797 9.07347656 12.51953125 9.1484375 C13.60621094 9.22320313 14.69289063 9.29796875 15.8125 9.375 C16.89144531 9.44460938 17.97039063 9.51421875 19.08203125 9.5859375 C22 10 22 10 25 12 C24.0625 20.03571429 24.0625 20.03571429 23 24 C21.96875 23.67 20.9375 23.34 19.875 23 C13.74306208 21.45598686 7.27424627 21.44009351 1 22 C0.34 22.66 -0.32 23.32 -1 24 C-0.78943495 26.73734564 -0.47061509 28.44134111 1.31542969 30.56152344 C3.11088843 32.09468908 4.55177886 32.7869185 6.765625 33.578125 C7.48814453 33.84858643 8.21066406 34.11904785 8.95507812 34.39770508 C10.09106445 34.81959106 10.09106445 34.81959106 11.25 35.25 C18.34841011 38.0117345 24.43804018 40.87608037 28 48 C28.98319328 61.68907563 28.98319328 61.68907563 25 67 C20.22678625 71.75984341 16.77619513 74 10 74 C10 77.63 10 81.26 10 85 C6.7 85 3.4 85 0 85 C-0.33 82.03 -0.66 79.06 -1 76 C-2.05960938 75.80664062 -3.11921875 75.61328125 -4.2109375 75.4140625 C-5.59903553 75.15144936 -6.98705224 74.88840614 -8.375 74.625 C-9.42300781 74.43550781 -9.42300781 74.43550781 -10.4921875 74.2421875 C-15.7734375 73.2265625 -15.7734375 73.2265625 -18 71 C-17.7578125 68.1796875 -17.7578125 68.1796875 -17.125 64.875 C-16.92132812 63.77929688 -16.71765625 62.68359375 -16.5078125 61.5546875 C-16.34023438 60.71164062 -16.17265625 59.86859375 -16 59 C-15.35675781 59.2165625 -14.71351563 59.433125 -14.05078125 59.65625 C-6.71172486 61.91764255 0.32500904 62.83945214 8 62 C8.99 61.34 9.98 60.68 11 60 C11.53098997 56.01524534 11.53098997 56.01524534 9.921875 52.4765625 C7.1839219 50.37301317 4.09582906 49.44452843 0.875 48.3125 C-6.5070105 45.54080255 -13.61959885 41.91437657 -17.2109375 34.5 C-18.71458631 29.73596416 -18.52235459 25.59971093 -17 20.9375 C-13.97675299 16.49710596 -10.18984263 12.01931062 -4.921875 10.3359375 C-3 10.0625 -3 10.0625 0 10 C0 6.7 0 3.4 0 0 Z " fill="#ACEA00" transform="translate(777,693)"/>
<path d="" fill="#003539" transform="translate(0,0)"/>
</svg>
